<svg version="1.2" xmlns="http://www.w3.org/2000/svg" viewBox="0 0 276 144" width="276" height="144">
	<title>5630552-ai</title>
	<style>
		.s0 { fill: #7bc7ff } 
		.s1 { fill: #ffffff } 
		.s2 { display: none;fill: #ffffff } 
	</style>
	<g id="BACKGROUND" style="display: none">
		<path id="&lt;Path&gt;" class="s0" d="m989 463h-1000v-1000h1000z"/>
	</g>
	<g id="OBJECTS">
		<g id="&lt;Group&gt;">
			<g id="&lt;Group&gt;" style="display: none">
				<g id="&lt;Group&gt;">
					<g id="&lt;Group&gt;">
						<path id="&lt;Path&gt;" class="s1" d="m209.5-109.8c3.2-6.5 5.1-13.8 5.1-21.6 0-26.9-21.9-48.7-48.8-48.7-26.9 0-48.7 21.8-48.7 48.7-5.4 0-10.1 2.8-12.9 6.9-5.6-4.3-12.6-6.9-20.2-6.9-18.3 0-33.1 14.8-33.1 33.1 0 18.3 14.8 33.1 33.1 33.1h122.8c12.4 0 22.4-10 22.4-22.4 0-11.5-8.6-20.9-19.7-22.2z"/>
					</g>
				</g>
			</g>
			<path id="&lt;Path&gt;" class="s2" d="m183.9 53.2q0-0.1 0-0.2c0-7.3-6-13.2-13.3-13.2-2.9 0-5.7 1-7.9 2.6-4.9-16.8-20.5-29.1-38.9-29.1-22.5 0-40.7 18.2-40.7 40.7 0 4.3 0.7 8.4 1.9 12.3-5.6 0.6-10 5.4-10 11.2q0 1.6 0.4 3c-13.7 1.3-24.5 12.8-24.5 26.8 0 14.9 12.1 27 26.9 27h102.2c22.5 0 40.7-18.2 40.7-40.7 0-21.1-16.2-38.5-36.8-40.4z"/>
			<path id="&lt;Path&gt;" class="s1" d="m234.3 81.1q0.4-1.3 0.4-2.8c0-5.3-4.1-9.7-9.3-10.3 1.2-3.5 1.8-7.3 1.8-11.2 0-20.6-16.7-37.3-37.2-37.3-16.9 0-31.2 11.3-35.7 26.7-2-1.5-4.6-2.4-7.3-2.4-6.7 0-12.1 5.4-12.1 12.1q0 0.1 0 0.1c-0.8 0.1-1.6 0.3-2.5 0.4-7.2-5.3-15.9-8.6-25.3-9.1-22.5-1.1-41.7 13.5-47.7 33.8-2.6-2-5.8-3.1-9.2-3.1-8.5 0-15.4 6.8-15.4 15.3q0 0.1 0 0.2-0.3 0.1-0.6 0.1c-23 2.5-21 36.7 2.1 36.7h102.1 36.7 56.9c13.7 0 24.7-11 24.7-24.7 0-12.8-9.9-23.4-22.4-24.5z"/>
			<path id="&lt;Path&gt;" class="s2" d="m228.6 82q-0.4 0-0.8-0.1 0-0.1 0-0.3c0-10.6-8.7-19.3-19.3-19.3-4.4 0-8.4 1.5-11.6 3.9-7.5-25.1-31-43.3-58.7-42.5-27.7-0.8-51.3 17.4-58.7 42.5-3.2-2.4-7.2-3.9-11.6-3.9-10.7 0-19.3 8.7-19.3 19.3q0 0.2 0 0.3-0.4 0.1-0.8 0.1c-29 3.1-26.5 46.3 2.7 46.3h87.7 87.7c29.2 0 31.7-43.2 2.7-46.3z"/>
			<path id="&lt;Path&gt;" class="s2" d="m387.4-343.5q-0.6-1.8-0.6-3.9c0-7.4 5.6-13.5 12.9-14.3-1.6-4.9-2.5-10.2-2.5-15.6 0-28.6 23.2-51.8 51.8-51.8 23.5 0 43.3 15.6 49.6 37.1 2.9-2.1 6.3-3.4 10.1-3.4 9.3 0 16.9 7.5 16.9 16.8q0 0.1 0 0.3c1.1 0.1 2.3 0.3 3.4 0.5 10-7.4 22.2-12 35.2-12.7 19.3-1 36.9 6.4 49.5 18.8 7.5-3.1 15.8-4.6 24.5-4.1 11.4 0.6 21.9 4.6 30.7 11 1-0.1 2-0.3 3-0.4q0-0.1 0-0.2c0-8.1 6.6-14.7 14.7-14.7 3.3 0 6.3 1.1 8.8 2.9 5.7-19.4 24.2-33.4 45.7-32.3 22.7 1.2 41.2 19.5 42.7 42.1 0.4 5.9-0.3 11.5-2 16.8 6.3 0.6 11.2 6 11.2 12.4q0 1.8-0.5 3.4c6 0.5 11.4 2.8 15.8 6.3 4.2-5.7 11-9.4 18.7-9.4 2.4 0 4.8 0.4 7 1 6.6-6.7 15.7-10.8 25.9-10.8 18.8 0 34.2 14.2 36.1 32.5 1.8-0.5 3.7-0.8 5.6-0.8h5c11.3 0 20.5 9.2 20.5 20.5 0 11.3-9.2 20.5-20.5 20.5h-48.1-43-152.8-50.6-91.4-51-79.2c-19 0-34.3-15.4-34.3-34.3 0-17.9 13.7-32.6 31.2-34.2z"/>
			<path id="&lt;Path&gt;" class="s2" d="m613.4-65.2c35.6 0 38.4-52.7 3-56.1q-0.5-0.1-1.1-0.1 0.1-1.3 0.1-2.6c0-32.6-26.4-59-59-59-25 0-46.3 15.5-54.9 37.4-6.8-8-17-13.2-28.3-13.2-11.5 0-21.7 5.3-28.5 13.4q0.2-2.6 0.3-5.3c0-42.1-35.6-76-78.3-73.2-36.4 2.4-66 32-68.2 68.5-1.4 22.1 7.1 42.3 21.4 56.6-2.4-0.3-4.9-0.5-7.4-0.5q-1.5 0-2.9 0.1c-21.9 1.1-20.7 34 1.2 34z"/>
			<path id="&lt;Path&gt;" class="s2" d="m630 102q-0.3 0-0.6-0.1 0-0.1 0-0.2c0-7.4-6-13.5-13.5-13.5-3 0-5.8 1-8.1 2.7-5.3-17.8-22.2-30.7-42-29.6-3.7 0.2-7.2 0.9-10.6 2q0.1-1.6 0.1-3.3c0-34.6-28-62.6-62.6-62.6-30.7 0-56.2 22.1-61.6 51.2-1.8-5.1-6.7-8.8-12.4-8.8-3 0-5.8 1-8 2.6-4.9-16.8-20.5-29.1-38.9-29.1-22.5 0-40.7 18.2-40.7 40.7 0 4.3 0.7 8.4 1.9 12.3-5.6 0.6-10 5.4-10 11.2q0 1.6 0.4 3c-13.7 1.3-24.5 12.8-24.5 26.8 0 14.9 12.1 27 27 27h76.9 25.2 200.1c20.3 0 22.1-30.2 1.9-32.3z"/>
			<path id="&lt;Path&gt;" class="s2" d="m913.4 103.2c2.2-4.5 3.5-9.6 3.5-15 0-18.7-15.2-33.9-33.9-33.9-14.3 0-26.6 8.9-31.5 21.5-6.6-5.6-15.2-9.1-24.6-9.1-5.4 0-10.6 1.2-15.2 3.2-3-20.7-20.8-36.7-42.4-36.7-23.7 0-42.9 19.2-42.9 42.8-4.7 0-8.9 2.5-11.3 6.1-4.9-3.8-11.1-6.1-17.8-6.1-16.1 0-29.1 13.1-29.1 29.2 0 16 13 29.1 29.1 29.1h88.2 19.8 106.2c8.6 0 15.6-7 15.6-15.6 0-8-6-14.6-13.7-15.5z"/>
			<path id="&lt;Path&gt;" class="s2" d="m455.9 326.4c5.6-7.3 8.6-16.7 7.7-26.7-1.8-18.9-16.7-33.4-35.6-34.7-8.3-0.5-16 1.6-22.5 5.5-3.3-22.6-22.8-39.9-46.3-39.9-12.9 0-24.6 5.1-33 13.5-2.4-5.8-8.1-10-14.8-10-3.6 0-6.9 1.2-9.6 3.2-6.2-21-26.2-36.2-49.5-35-24.5 1.3-44.6 21.1-46.2 45.6-0.4 6.4 0.4 12.5 2.2 18.1-6.9 0.8-12.2 6.5-12.2 13.5q0 1.9 0.5 3.7c-6.4 0.6-12.2 3-17 6.8-4.6-6.2-12-10.2-20.3-10.2-2.6 0-5.1 0.4-7.5 1.1-7.2-7.2-17.1-11.7-28.1-11.7-20.3 0-37.1 15.4-39.1 35.2-2-0.5-4-0.8-6.1-0.8h-5.4c-12.3 0-22.2 9.9-22.2 22.1 0 12.3 9.9 22.2 22.2 22.2h226q0 0 0 0h144.3 12.5c5.9 0 10.7-4.8 10.7-10.7v-0.2c0-5.9-4.8-10.6-10.7-10.6z"/>
			<path id="&lt;Path&gt;" class="s2" d="m221.8 81.1q0.4-1.4 0.4-3c0-5.9-4.4-10.7-10.1-11.4 1.2-3.9 1.9-8 1.9-12.4 0-22.6-18.3-40.9-41-40.9-18.2 0-33.6 11.9-38.9 28.3-3.2-2.6-7.4-4.2-11.8-4.2-8.7 0-16 5.9-18 14-7.2-4.8-15.9-7.7-25.2-7.7-25.3 0-45.7 20.5-45.7 45.8 0 25.2 20.4 45.7 45.7 45.7h140.2c15 0 27.2-12.1 27.2-27.1 0-14.2-10.9-25.8-24.7-27.1z"/>
			<path id="&lt;Path&gt;" class="s2" d="m903.7 271c1.1-2.5 1.7-5.2 1.7-8.1 0-10.7-8.7-19.4-19.5-19.4-2.4 0-4.6 0.4-6.7 1.2-9.1-16.4-26.6-27.4-46.6-27.4-29.5 0-53.3 23.9-53.3 53.3 0 4.2 0.5 8.2 1.4 12.1-11.6 6.9-19.2 19.5-19 34 0.3 21.5 18.6 38.4 40.1 38.4h80.5c24.7 0 44.8-20 44.8-44.8 0-17-9.5-31.8-23.4-39.3z"/>
		</g>
	</g>
</svg>